<svg width="1920" height="3324" viewBox="0 0 1920 3324" fill="none" xmlns="http://www.w3.org/2000/svg">
<path d="M-276 3072C-582.5 3291.5 629.66 5220.13 465.92 5272.12L-772.924 5488C-836.44 4091.97 -964.553 1283.82 -968.872 1219.49C-974.27 1139.07 -808.011 266.374 -768.065 126.051C-728.12 -14.2715 1691 -402 1923 -7C2021.79 161.196 910.5 1018.78 1246.5 1214C1559.13 1395.64 2212.02 1957.81 1864 2253C1712.5 2381.5 2069.5 2834.5 2004.5 2938C1936.7 3045.95 1887.16 2936.71 1770 3001C1616 3085.5 794.5 2897 645 2971C320.528 3131.61 54.0073 2835.67 -276 3072Z" fill="#E7DEDB"/>
<path d="M284 642.5C284 322.5 958.999 -262 327 -199.5C-304.999 -137 -387.5 -264 -387.5 -264C-446.333 1029.33 -565 3630.9 -569 3690.5C-574 3765 -274 2722 -237 2852C-200 2982 194.5 2918.5 370 2954.5C570 2995.53 696.542 2808.19 840 2852C1043 2914 1533 2961 1620 2852C1661.46 2800.05 1723 2540 1445 2349.5C1347.59 2282.75 1211 2013.5 1155 1804.5C1099 1595.5 600.147 1630.58 667.501 1302C706.477 1111.86 284 962.5 284 642.5Z" fill="#D8D0CD"/>
</svg>
