<svg width="407" height="385" viewBox="0 0 407 385" fill="none" xmlns="http://www.w3.org/2000/svg">
<path d="M104.974 115V54.625H116.934V73.6L115.784 69C116.628 66.0867 118.046 63.4417 120.039 61.065C122.109 58.6883 124.448 56.81 127.054 55.43C129.738 54.05 132.498 53.36 135.334 53.36C136.638 53.36 137.864 53.475 139.014 53.705C140.241 53.935 141.199 54.2033 141.889 54.51L138.784 67.39C137.864 67.0067 136.829 66.7 135.679 66.47C134.606 66.1633 133.533 66.01 132.459 66.01C130.389 66.01 128.396 66.4317 126.479 67.275C124.639 68.0417 122.991 69.1533 121.534 70.61C120.154 71.99 119.043 73.6383 118.199 75.555C117.356 77.395 116.934 79.4267 116.934 81.65V115H104.974ZM153.311 115V54.625H165.156V115H153.311ZM159.061 41.285C156.531 41.285 154.576 40.6333 153.196 39.33C151.816 38.0267 151.126 36.1867 151.126 33.81C151.126 31.5867 151.816 29.785 153.196 28.405C154.653 27.025 156.608 26.335 159.061 26.335C161.591 26.335 163.546 26.9867 164.926 28.29C166.306 29.5933 166.996 31.4333 166.996 33.81C166.996 36.0333 166.268 37.835 164.811 39.215C163.431 40.595 161.515 41.285 159.061 41.285ZM190.838 115V39.215H202.683V115H190.838ZM178.303 66.125V54.625H216.713V66.125H178.303ZM234.974 115V39.215H246.819V115H234.974ZM222.439 66.125V54.625H260.849V66.125H222.439ZM299.248 116.15C293.038 116.15 287.518 114.847 282.688 112.24C277.935 109.557 274.178 105.915 271.418 101.315C268.735 96.715 267.393 91.425 267.393 85.445C267.393 80.6917 268.16 76.36 269.693 72.45C271.226 68.54 273.335 65.1667 276.018 62.33C278.778 59.4167 282.036 57.1933 285.793 55.66C289.626 54.05 293.766 53.245 298.213 53.245C302.123 53.245 305.765 54.0117 309.138 55.545C312.511 57.0017 315.425 59.0333 317.878 61.64C320.408 64.2467 322.325 67.3517 323.628 70.955C325.008 74.4817 325.66 78.3533 325.583 82.57L325.468 87.63H276.133L273.488 78.2H315.233L313.508 80.155V77.395C313.278 74.865 312.435 72.6033 310.978 70.61C309.521 68.6167 307.681 67.045 305.458 65.895C303.235 64.745 300.82 64.17 298.213 64.17C294.073 64.17 290.585 64.975 287.748 66.585C284.911 68.1183 282.765 70.4183 281.308 73.485C279.851 76.475 279.123 80.1933 279.123 84.64C279.123 88.8567 280.005 92.5367 281.768 95.68C283.531 98.7467 286.023 101.123 289.243 102.81C292.463 104.497 296.181 105.34 300.398 105.34C303.388 105.34 306.148 104.842 308.678 103.845C311.285 102.848 314.083 101.047 317.073 98.44L323.053 106.835C321.213 108.675 318.951 110.285 316.268 111.665C313.661 113.045 310.863 114.157 307.873 115C304.96 115.767 302.085 116.15 299.248 116.15ZM338.456 115V54.625H350.416V73.6L349.266 69C350.109 66.0867 351.527 63.4417 353.521 61.065C355.591 58.6883 357.929 56.81 360.536 55.43C363.219 54.05 365.979 53.36 368.816 53.36C370.119 53.36 371.346 53.475 372.496 53.705C373.722 53.935 374.681 54.2033 375.371 54.51L372.266 67.39C371.346 67.0067 370.311 66.7 369.161 66.47C368.087 66.1633 367.014 66.01 365.941 66.01C363.871 66.01 361.877 66.4317 359.961 67.275C358.121 68.0417 356.472 69.1533 355.016 70.61C353.636 71.99 352.524 73.6383 351.681 75.555C350.837 77.395 350.416 79.4267 350.416 81.65V115H338.456Z" fill="#3F3F3F"/>
<path d="M92.885 326.35C81.2917 326.35 70.56 324.235 60.69 320.005C50.9767 315.775 42.4383 309.9 35.075 302.38C27.8683 294.703 22.2283 285.773 18.155 275.59C14.2383 265.25 12.28 253.97 12.28 241.75C12.28 229.53 14.2383 218.328 18.155 208.145C22.2283 197.805 27.8683 188.875 35.075 181.355C42.4383 173.678 50.9767 167.725 60.69 163.495C70.56 159.265 81.2917 157.15 92.885 157.15C104.478 157.15 115.132 159.265 124.845 163.495C134.715 167.725 143.253 173.678 150.46 181.355C157.823 189.032 163.463 198.04 167.38 208.38C171.453 218.563 173.49 229.687 173.49 241.75C173.49 253.813 171.453 265.015 167.38 275.355C163.463 285.538 157.823 294.468 150.46 302.145C143.253 309.822 134.715 315.775 124.845 320.005C115.132 324.235 104.478 326.35 92.885 326.35ZM92.885 301.675C100.875 301.675 108.16 300.187 114.74 297.21C121.477 294.233 127.273 290.082 132.13 284.755C136.987 279.272 140.747 272.927 143.41 265.72C146.23 258.357 147.64 250.367 147.64 241.75C147.64 233.133 146.23 225.222 143.41 218.015C140.747 210.652 136.987 204.307 132.13 198.98C127.273 193.497 121.477 189.267 114.74 186.29C108.16 183.313 100.875 181.825 92.885 181.825C84.895 181.825 77.5317 183.313 70.795 186.29C64.215 189.267 58.4183 193.418 53.405 198.745C48.5483 204.072 44.7883 210.417 42.125 217.78C39.4617 224.987 38.13 232.977 38.13 241.75C38.13 250.367 39.4617 258.357 42.125 265.72C44.7883 273.083 48.5483 279.428 53.405 284.755C58.4183 290.082 64.215 294.233 70.795 297.21C77.5317 300.187 84.895 301.675 92.885 301.675ZM201.743 324V200.625H226.183V239.4L223.833 230C225.557 224.047 228.455 218.642 232.528 213.785C236.758 208.928 241.537 205.09 246.863 202.27C252.347 199.45 257.987 198.04 263.783 198.04C266.447 198.04 268.953 198.275 271.303 198.745C273.81 199.215 275.768 199.763 277.178 200.39L270.833 226.71C268.953 225.927 266.838 225.3 264.488 224.83C262.295 224.203 260.102 223.89 257.908 223.89C253.678 223.89 249.605 224.752 245.688 226.475C241.928 228.042 238.56 230.313 235.583 233.29C232.763 236.11 230.492 239.478 228.768 243.395C227.045 247.155 226.183 251.307 226.183 255.85V324H201.743Z" fill="#3F3F3F"/>
<path d="M11.2734 114L54 114C68.9117 114 81 101.912 81 87L81 58.3828C81 43.4711 68.9155 31.3828 54.0039 31.3828C40.4143 31.3828 24.1396 31.3828 11.2734 31.3828" stroke="#3F3F3F" stroke-width="10" stroke-linecap="round"/>
<path d="M20.0625 30.7969L20.0625 27.2812C20.0625 18.2203 27.4078 10.875 36.4687 10.875V10.875C45.5297 10.875 52.875 18.2203 52.875 27.2812L52.875 30.7969" stroke="#3F3F3F" stroke-width="7" stroke-linecap="round"/>
<path d="M16.2031 72.3984C16.2031 61.0276 15.7426 50.7041 14.9919 43.197C14.6177 39.4555 14.1654 36.3496 13.6444 34.1459C13.3877 33.0602 13.0898 32.0843 12.7251 31.338C12.5451 30.9697 12.297 30.5477 11.946 30.1913C11.5921 29.8319 10.9704 29.3828 10.1016 29.3828C9.23269 29.3828 8.61103 29.8319 8.25711 30.1913C7.90616 30.5477 7.65803 30.9697 7.47804 31.338C7.11334 32.0843 6.81539 33.0602 6.5587 34.1459C6.03768 36.3496 5.58539 39.4555 5.21124 43.197C4.46054 50.7041 4 61.0276 4 72.3984C4 83.7693 4.46054 94.0928 5.21124 101.6C5.58539 105.341 6.03768 108.447 6.55871 110.651C6.81539 111.737 7.11334 112.713 7.47804 113.459C7.65803 113.827 7.90617 114.249 8.25712 114.606C8.61104 114.965 9.2327 115.414 10.1016 115.414C10.9704 115.414 11.5921 114.965 11.946 114.606C12.297 114.249 12.5451 113.827 12.7251 113.459C13.0898 112.713 13.3877 111.737 13.6444 110.651C14.1654 108.447 14.6177 105.341 14.9919 101.6C15.7426 94.0928 16.2031 83.7693 16.2031 72.3984Z" stroke="#3F3F3F" stroke-width="4"/>
<path d="M315.234 190.603C317.501 189.099 322.171 187.804 328.217 189.847C335.548 192.326 354.115 193.768 360.861 191.576C360.894 191.565 360.927 191.554 360.957 191.544C361.575 191.136 361.704 191.286 360.957 191.544C360.905 191.578 360.85 191.617 360.791 191.659L338.305 207.949C337.954 208.203 337.479 208.202 337.129 207.947L315.271 192.013C314.778 191.653 314.725 190.941 315.234 190.603Z" fill="#3F3F3F" stroke="#3F3F3F" stroke-linecap="round"/>
<path d="M337.833 316.083V218.167M337.833 218.167L283 179H392.667L337.833 218.167Z" stroke="#3F3F3F" stroke-width="9" stroke-linecap="round"/>
<ellipse cx="336.854" cy="317.083" rx="30.3542" ry="3.91667" fill="#3F3F3F"/>
</svg>
